# xmcd CD database file
#
# Track frame offsets:
#	150
#	27734
#	44217
#	73920
#	101916
#	131910
#	153439
#	187670
#	218704
#	241926
#	266717
#	295859
#	319870
#
# Disc length: 4513 seconds
#
# Revision: 0
# Processed by: cddbd v1.5.2PL0 Copyright (c) Steve Scherf et al.
# Submitted via: CDex 1.51
#
DISCID=cf119f0d
DTITLE=Gordon Goodwin's Big Phat Band - The Phat Pack
DYEAR=2006
DGENRE=Jazz
TTITLE0=Cut 'N Run
TTITLE1=Too Close For Comfort Feat. Dianne Reeves
TTITLE2=Count Bubba's Revenge
TTITLE3=Play That Funky Music Feat. David Sandorn
TTITLE4=The Phat Pack
TTITLE5=Hunting Wabbits 2 (A Bad Hare Day)
TTITLE6=La Almeja Pequena (The Little Clam)
TTITLE7=Get In Line
TTITLE8=Attack Of The Killer Tomatoes
TTITLE9=Under The Wire Feat. Eddie Daniels
TTITLE10=Whodunnit?
TTITLE11=It Was A Very Good Year Feat. Take Six
TTITLE12=Ever Braver, Ever Stronger (An American Elegy)
EXTD=YEAR: 2006
EXTT0=
EXTT1=
EXTT2=
EXTT3=
EXTT4=
EXTT5=
EXTT6=
EXTT7=
EXTT8=
EXTT9=
EXTT10=
EXTT11=
EXTT12=
PLAYORDER=
